# xmcd
#
# Track frame offsets: 
#        150
#        12853
#        25880
#        36475
#        49212
#        68466
#        85909
#        99459
#        111143
#        126529
#        137546
#        145140
#        158998
#        176004
#        184142
#        193973
#        209459
#        218562
#
# Disc length: 3066 seconds
#
# Revision: 0
# Processed by: cddbd v1.5.2PL0 Copyright (c) Steve Scherf et al.
# Submitted via: ExactAudioCopy v0.99pb3
#
DISCID=080bf812
DTITLE=Margot Leverett and The Klezmer Mountain Boys - 2nd Avenue Squa
DTITLE=re Dance
DYEAR=2008
DGENRE=Bluegrass
TTITLE0=Farmer's Market
TTITLE1=Stoney Lonesome
TTITLE2=Electric Kugel
TTITLE3=2nd Avenue Square Dance
TTITLE4=Ternura
TTITLE5=Little Moses
TTITLE6=Sidney's Tsveyte Bulgar
TTITLE7=Calgary Reel
TTITLE8=Geena's Dream
TTITLE9=Come Along Jody
TTITLE10=Tumbalalaika
TTITLE11=Boreasca
TTITLE12=Mississippi Waltz
TTITLE13=Lee Highway Blues
TTITLE14=High Lonesome Honga
TTITLE15=Abe's Retreat
TTITLE16=Zaydn's Tants
TTITLE17=Porges Waltz
EXTD=
EXTT0=
EXTT1=
EXTT2=
EXTT3=
EXTT4=
EXTT5=
EXTT6=
EXTT7=
EXTT8=
EXTT9=
EXTT10=
EXTT11=
EXTT12=
EXTT13=
EXTT14=
EXTT15=
EXTT16=
EXTT17=
PLAYORDER=
